<!DOCTYPE svg PUBLIC "-//W3C//DTD SVG 1.1//EN" "http://www.w3.org/Graphics/SVG/1.1/DTD/svg11.dtd">
<!-- Uploaded to: SVG Repo, www.svgrepo.com, Transformed by: SVG Repo Mixer Tools -->
<svg version="1.1" id="Layer_1" xmlns="http://www.w3.org/2000/svg" xmlns:xlink="http://www.w3.org/1999/xlink" viewBox="0 0 32 32" enable-background="new 0 0 32 32" xml:space="preserve" width="800px" height="800px" fill="#000000">
<g id="SVGRepo_bgCarrier" stroke-width="0"/>
<g id="SVGRepo_tracerCarrier" stroke-linecap="round" stroke-linejoin="round"/>
<g id="SVGRepo_iconCarrier"> <polygon fill="none" stroke="#5fd3f3" stroke-width="2" stroke-miterlimit="10" points="5,21 11,21 21,11 21,5 5,5 "/> <polygon fill="none" stroke="#5fd3f3" stroke-width="2" stroke-miterlimit="10" points="11,27 27,27 27,11 21,11 11,21 "/> <path fill="none" stroke="#5fd3f3" stroke-width="2" stroke-linejoin="round" stroke-miterlimit="10" d="M8,16c4.3,0,6-2.4,6-6"/> <path fill="none" stroke="#5fd3f3" stroke-width="2" stroke-linejoin="round" stroke-miterlimit="10" d="M9,12c0,1.7,2.2,3,5,3"/> <line fill="none" stroke="#5fd3f3" stroke-width="2" stroke-miterlimit="10" x1="8" y1="10" x2="16" y2="10"/> <line fill="none" stroke="#5fd3f3" stroke-width="2" stroke-miterlimit="10" x1="12" y1="10" x2="12" y2="8"/> <polyline fill="none" stroke="#5fd3f3" stroke-width="2" stroke-miterlimit="10" points="22,24 22,23 20,17 20,17 18,23 18,24 "/> <line fill="none" stroke="#5fd3f3" stroke-width="2" stroke-miterlimit="10" x1="18.4" y1="22" x2="21.6" y2="22"/> </g>
</svg>